# xmcd
#
# Track frame offsets:
# 150
# 29625
# 51147
# 66075
# 89112
# 108672
# 129204
# 153201
# 170739
# 194766
# 219399
# 232864
# 257692
# 278146
# 306133
#
# Disc length: 4558 seconds
#
#
# Revision: 3
# Processed by: cddbd v1.5.1PL0 Copyright (c) Steve Scherf et al.
# Submitted via: FreeRIP 2.941 
#
DISCID=d911cc0f
DTITLE=Billy Paul - Best Of
DYEAR=2002
DGENRE=Soul
TTITLE0=Your Song
TTITLE1=Me And Mrs Jones
TTITLE2=Without You
TTITLE3=Let Em'In
TTITLE4=People Power
TTITLE5=It's Too Late
TTITLE6=Am I Black Enough For You
TTITLE7=Ebony Woman
TTITLE8=Everything Must Change
TTITLE9=July July July
TTITLE10=Thank For Saving My life
TTITLE11=When Live Is New
TTITLE12=Mrs Robinson
TTITLE13=I See The Light
TTITLE14=Black Wonders Of The World
EXTD=
EXTT0=
EXTT1=
EXTT2=
EXTT3=
EXTT4=
EXTT5=
EXTT6=
EXTT7=
EXTT8=
EXTT9=
EXTT10=
EXTT11=
EXTT12=
EXTT13=
EXTT14=
PLAYORDER=
